<svg xmlns="http://www.w3.org/2000/svg" width="125" height="125"><path d="M56.96 22.379c1.396 1.15 2.727 2.377 4.04 3.621 2.758-1.32 5.272-2.803 7.813-4.5 7.08-4.428 14.358-5.664 22.515-4.035 6.635 1.907 11.55 5.055 15.18 11.008 5.116 9.925 5.969 19.13 2.992 30.027C102.738 78.452 85.476 91.245 69 103l-2.477 1.82c-3.356 1.57-4.998 1.23-8.523.18-17.906-9.708-36.806-26.116-44-45.75-2.508-9.248-3.043-18.904 1.191-27.734 4.027-6.539 9.072-10.993 16.184-13.891 9.418-1.624 17.568-.884 25.586 4.754M28 32c-4.711 6.112-5.79 11.432-5 19 3.93 17.741 18.99 29.856 33 40l2.586 1.922c2.374 1.353 2.374 1.353 4.902.488 14.667-8.234 30.198-21.5 35.926-37.765 1.423-6.424 1.517-12.9-.602-19.145-2.804-3.868-5.204-6.964-9.812-8.5-6.51-.783-11.62.18-17 4-3.04 2.821-5.51 5.749-6 10-3.125.563-3.125.563-7 0-1.804-2.114-3.116-4.34-4.523-6.734C51.849 31.234 48.54 29.514 44 28c-6.438-.676-10.999-.525-16 4" fill="#958FE6"/></svg>