<svg xmlns="http://www.w3.org/2000/svg" width="125" height="125"><path d="M56.96 22.379c1.396 1.15 2.727 2.377 4.04 3.621 2.758-1.32 5.272-2.803 7.813-4.5 7.08-4.428 14.358-5.664 22.515-4.035 6.635 1.907 11.55 5.055 15.18 11.008 5.116 9.925 5.969 19.13 2.992 30.027C102.738 78.452 85.476 91.245 69 103l-2.477 1.82c-3.356 1.57-4.998 1.23-8.523.18-17.906-9.708-36.806-26.116-44-45.75-2.508-9.248-3.043-18.904 1.191-27.734 4.027-6.539 9.072-10.993 16.184-13.891 9.418-1.624 17.568-.884 25.586 4.754" fill="#948FE7"/></svg>